# xmcd
#
# Track frame offsets: 
#        150
#        15042
#        41083
#        55968
#
# Disc length: 1089 seconds
#
# Revision: 0
# Processed by: cddbd v1.5.2PL0 Copyright (c) Steve Scherf et al.
# Submitted via: ExactAudioCopy v0.95a5
#
DISCID=25043f04
DTITLE=BoA - LOSE YOUR MIND
DYEAR=2007
DGENRE=JPop
TTITLE0=LOSE YOUR MIND feat.Yutaka Furukawa from DOPING PANDA - 
TTITLE1=Smile again
TTITLE2=LOSE YOUR MIND feat.Yutaka Furukawa from DOPING PANDA - instru
TTITLE2=mental - 
TTITLE3=Smile again - instrumental - 
EXTD=
EXTT0=
EXTT1=
EXTT2=
EXTT3=
PLAYORDER=
